<svg width="120" height="120" viewBox="0 0 120 120" fill="none" xmlns="http://www.w3.org/2000/svg">
<circle cx="60" cy="60" r="46.5" stroke="#E1DEDE" stroke-width="7"/>
<g clip-path="url(#clip0_2_45)">
<path d="M77.0764 44.6601V43.5395C77.0764 39.025 72.2827 35.6008 67.2526 36.7545C64.2206 31.6305 56.1214 31.8427 53.2949 36.8318C48.4113 35.7386 43.5461 38.9982 43.5461 43.5586V56.615C41.1856 55.8462 38.4226 56.0904 36.2014 57.5333C32.7286 59.7895 31.9669 64.0892 34.4801 67.176L48.6729 84.6096C49.023 85.0396 49.4855 85.3901 50.0218 85.632C50.5581 85.8739 51.1527 86 51.7561 86H78.1256C79.8888 86 81.4186 84.935 81.8146 83.4315L85.3854 69.8753C85.7935 68.325 85.9997 66.7391 86 65.1482V51.5293C86 47.3245 81.7975 44.077 77.0764 44.6601ZM80.3211 65.1481C80.3211 66.3624 80.1633 67.5775 79.852 68.7593L76.6194 81.0312H52.7315L39.1034 64.293C37.3952 62.1948 40.8807 59.8651 42.5808 61.9531L45.7902 65.8948C46.8543 67.2018 49.2246 66.5456 49.2246 64.9339V43.5586C49.2246 40.9039 53.5511 40.9903 53.5511 43.6301V59.5C53.5511 60.4147 54.3985 61.1562 55.444 61.1562H56.2551C57.3005 61.1562 58.1479 60.4147 58.1479 59.5V39.9355C58.1479 37.279 62.4744 37.3673 62.4744 40.007V59.5C62.4744 60.4147 63.3218 61.1562 64.3673 61.1562H65.1783C66.2238 61.1562 67.0712 60.4147 67.0712 59.5V43.468C67.0712 40.8105 71.3976 40.8998 71.3976 43.5395V59.5C71.3976 60.4147 72.245 61.1562 73.2904 61.1562H74.1016C75.1471 61.1562 75.9945 60.4147 75.9945 59.5V51.6008C75.9945 48.8843 80.3209 48.9466 80.3209 51.5293V65.1481H80.3211Z" fill="#E1DEDE"/>
</g>
<defs>
<clipPath id="clip0_2_45">
<rect width="53" height="53" fill="white" transform="translate(33 33)"/>
</clipPath>
</defs>
</svg>
