<svg width="120" height="120" viewBox="0 0 120 120" fill="none" xmlns="http://www.w3.org/2000/svg">
<circle cx="60" cy="60" r="50" fill="#E1DEDE"/>
<g clip-path="url(#clip0_2_205)">
<path d="M77.0764 44.66V43.5395C77.0764 39.0249 72.2828 35.6007 67.2526 36.7544C64.2206 31.6304 56.1214 31.8426 53.2949 36.8318C48.4114 35.7385 43.5461 38.9981 43.5461 43.5585V56.6149C41.1856 55.8461 38.4226 56.0903 36.2015 57.5332C32.7287 59.7894 31.9669 64.0892 34.4802 67.176L48.6729 84.6096C49.023 85.0395 49.4855 85.3901 50.0218 85.6319C50.5582 85.8738 51.1528 86 51.7562 86H78.1257C79.8889 86 81.4186 84.9349 81.8146 83.4315L85.3855 69.8753C85.7936 68.3249 85.9997 66.7391 86.0001 65.1481V51.5292C86.0001 47.3244 81.7976 44.0769 77.0764 44.66ZM80.3211 65.148C80.3211 66.3624 80.1633 67.5774 79.8521 68.7593L76.6194 81.0311H52.7316L39.1035 64.293C37.3953 62.1947 40.8808 59.865 42.5809 61.953L45.7902 65.8948C46.8544 67.2018 49.2247 66.5456 49.2247 64.9338V43.5585C49.2247 40.9038 53.5512 40.9903 53.5512 43.63V59.4999C53.5512 60.4147 54.3986 61.1561 55.444 61.1561H56.2551C57.3006 61.1561 58.148 60.4147 58.148 59.4999V39.9355C58.148 37.2789 62.4745 37.3672 62.4745 40.007V59.4999C62.4745 60.4147 63.3219 61.1561 64.3673 61.1561H65.1784C66.2239 61.1561 67.0713 60.4147 67.0713 59.4999V43.4679C67.0713 40.8105 71.3976 40.8997 71.3976 43.5395V59.4999C71.3976 60.4147 72.245 61.1561 73.2905 61.1561H74.1017C75.1471 61.1561 75.9945 60.4147 75.9945 59.4999V51.6007C75.9945 48.8843 80.3209 48.9466 80.3209 51.5292V65.148H80.3211Z" fill="#010031"/>
</g>
<defs>
<clipPath id="clip0_2_205">
<rect width="53" height="53" fill="white" transform="translate(33 33)"/>
</clipPath>
</defs>
</svg>
