<svg width="120" height="120" viewBox="0 0 120 120" fill="none" xmlns="http://www.w3.org/2000/svg">
<circle cx="60" cy="60" r="46.5" fill="#E1DEDE" stroke="#E1DEDE" stroke-width="7"/>
<g clip-path="url(#clip0_2_209)">
<path d="M74.9485 41.8029C74.1067 40.9667 73.0669 40.3572 71.926 40.0312C70.7852 39.7052 69.5803 39.6733 68.4238 39.9385C68.119 38.7662 67.5115 37.6946 66.6621 36.8311C63.9359 34.1049 59.4446 34.1049 56.7184 36.8311L50.6594 42.8901L42.7343 43.8745C37.8801 44.496 34.0932 48.568 33.7767 53.4553L33.2579 61.8461C33.1071 64.1702 33.4542 66.4997 34.2758 68.6789C35.0975 70.8582 36.3749 72.8369 38.0226 74.4829L46.7747 83.235C53.1635 89.6238 63.5878 89.6238 69.9767 83.235L84.8922 68.3194C87.6184 65.5932 87.6184 61.102 84.8922 58.3757C84.0055 57.4891 82.925 56.9256 81.7848 56.6141C82.05 55.4575 82.0181 54.2527 81.6921 53.1118C81.3661 51.9709 80.7566 50.9311 79.9203 50.0893C79.0337 49.2027 77.9532 48.6392 76.8129 48.3277C77.0782 47.1711 77.0463 45.9663 76.7203 44.8254C76.3942 43.6845 75.7847 42.6447 74.9485 41.8029ZM71.6339 45.1175C72.572 46.0555 72.572 47.494 71.6339 48.4321L66.6621 53.4039L69.9767 56.7185L73.2912 53.4039C74.2292 52.4659 75.6678 52.4659 76.6058 53.4039C77.5438 54.3419 77.5438 55.7804 76.6058 56.7185L73.2912 60.033L76.6058 63.3476L78.2631 61.6903C79.2011 60.7523 80.6396 60.7523 81.5776 61.6903C82.5157 62.6283 82.5157 64.0669 81.5776 65.0049L66.6621 79.9204C62.0665 84.516 54.6849 84.516 50.0893 79.9204L41.3372 71.1683C40.1574 69.997 39.2421 68.5867 38.6527 67.0322C38.0632 65.4777 37.8134 63.8151 37.9199 62.156L38.4883 53.7155C38.5617 52.4315 39.0844 51.2142 39.9649 50.2768C40.8454 49.3394 42.0275 48.7415 43.3044 48.5878L45.2218 48.3277L43.4602 50.0893L46.7747 53.4039L60.033 40.1457C60.971 39.2076 62.4095 39.2076 63.3475 40.1457C64.2856 41.0837 64.2856 42.5222 63.3475 43.4602L60.033 46.7748L63.3475 50.0893L68.3194 45.1175C69.2574 44.1795 70.6959 44.1795 71.6339 45.1175Z" fill="#010031"/>
</g>
<defs>
<clipPath id="clip0_2_209">
<rect width="75" height="75" fill="white" transform="translate(60.033 7) rotate(45)"/>
</clipPath>
</defs>
</svg>
