<svg width="120" height="120" viewBox="0 0 120 120" fill="none" xmlns="http://www.w3.org/2000/svg">
<circle cx="60" cy="60" r="46.5" stroke="#E1DEDE" stroke-width="7"/>
<path d="M48.7328 38.3336C47.1946 38.3179 45.6633 38.5401 44.193 38.9922H44.1203L38.2609 40.8227C34.91 41.8564 31.9782 43.9363 29.8955 46.7576C27.8127 49.5789 26.6884 52.9932 26.6875 56.5V68.875C26.6875 77.9102 34.0586 85.2813 43.0938 85.2813H66.3109C69.168 85.3445 71.9336 83.6688 73.0492 80.8867C73.7547 79.1195 73.6539 77.2609 72.9766 75.6133C74.466 74.8461 75.634 73.5742 76.2719 72.025C76.6191 71.1467 76.7852 70.2074 76.7602 69.2633C76.7352 68.3192 76.5197 67.3899 76.1266 66.5313H85.2812C89.1367 66.5313 92.3125 63.3555 92.3125 59.5C92.3125 55.6445 89.1367 52.4688 85.2812 52.4688H81.693L82.6445 52.1758C86.3336 51.0578 88.45 47.0758 87.332 43.3867C86.2141 39.6977 82.232 37.5813 78.543 38.6992L58.7664 44.7789C58.5859 44.2978 58.3664 43.8322 58.1102 43.3867C56.9383 41.4274 54.5664 39.2125 50.7836 38.5516C50.0805 38.4344 49.3844 38.3406 48.7328 38.3336ZM80.8867 43.0938C81.8008 43.1945 82.5812 43.8274 82.8648 44.7789C83.2492 46.0422 82.5156 47.3242 81.2523 47.7086L65.2141 52.5414L66.018 55.1781V57.1563H85.2812C86.6078 57.1563 87.625 58.1734 87.625 59.5C87.625 60.8266 86.6078 61.8438 85.2812 61.8438H69.8266L63.6742 59.4274C62.815 59.0752 61.8933 58.9006 60.9648 58.9141L59.7203 49.3188L79.9352 43.1664C80.2436 43.0749 80.568 43.0502 80.8867 43.0938ZM48.6602 43.1664C49.1078 43.1664 49.5742 43.1664 49.9797 43.2391C52.4969 43.6797 53.4672 44.7789 54.0812 45.8031C54.693 46.8297 54.7375 47.5609 54.7375 47.5609V47.7086L56.718 62.7953C56.7373 62.87 56.7607 62.9436 56.7883 63.0156C56.8597 63.3042 56.8726 63.6041 56.8262 63.8978C56.7799 64.1914 56.6752 64.4727 56.5183 64.7253C56.3615 64.9778 56.1557 65.1963 55.913 65.368C55.6704 65.5397 55.3958 65.6611 55.1055 65.725C54.3461 65.9078 53.9617 65.807 53.568 65.5797C53.1742 65.35 52.6891 64.8649 52.3234 63.8219L49.3937 52.4688C49.303 52.1271 49.1361 51.8105 48.9056 51.5425C48.6751 51.2745 48.387 51.0621 48.0629 50.9212C47.7387 50.7803 47.3869 50.7146 47.0337 50.7289C46.6805 50.7432 46.3351 50.8372 46.0234 51.0039L42.1422 53.1274C41.8721 53.2758 41.6341 53.4763 41.4418 53.7172C41.2495 53.9581 41.1067 54.2346 41.0218 54.5309C40.9368 54.8271 40.9113 55.1373 40.9467 55.4435C40.9821 55.7496 41.0778 56.0458 41.2281 56.3149C41.3766 56.5843 41.5769 56.8218 41.8174 57.0137C42.0579 57.2056 42.3339 57.3481 42.6297 57.433C42.9254 57.5179 43.235 57.5436 43.5407 57.5086C43.8463 57.4736 44.1421 57.3785 44.4109 57.2289L45.5828 56.5703L47.8562 65.2141C47.8756 65.288 47.8991 65.3607 47.9266 65.432C48.5594 67.2461 49.6398 68.7016 51.1516 69.6086C52.3867 70.3492 53.8234 70.6328 55.2531 70.4875C54.4866 71.2024 53.8866 72.0769 53.4953 73.0492C52.981 74.3186 52.8525 75.7114 53.126 77.0534C53.3995 78.3954 54.0628 79.6269 55.0328 80.5938H43.0938C36.5945 80.5938 31.375 75.3742 31.375 68.875V56.4977C31.375 51.3414 34.7266 46.8109 39.6508 45.2922L45.5102 43.5344C45.9859 43.3867 47.3242 43.1664 48.6602 43.1664ZM61.4055 63.6742C61.5789 63.7024 61.743 63.6742 61.9164 63.7492L70.6328 67.2649C71.8586 67.757 72.4445 69.0391 71.9523 70.2649C71.4578 71.493 70.1008 72.0789 68.875 71.5844L60.1586 68.1438C60.032 68.0969 59.9758 67.9867 59.8656 67.9234C60.8249 66.7108 61.3652 65.2199 61.4055 63.6742ZM59.9406 73.3422C60.25 73.3422 60.5805 73.3703 60.8922 73.4899L64.0398 74.7344L67.1172 75.9789L67.4102 76.0539C68.6359 76.5461 69.2219 77.9031 68.7297 79.1289C68.5684 79.5467 68.2881 79.9081 67.9237 80.1685C67.5592 80.4288 67.1265 80.5767 66.6789 80.5938H66.6039C66.2801 80.6076 65.9567 80.5574 65.6523 80.4461L59.1344 77.8094C58.8441 77.6963 58.5793 77.5266 58.3554 77.3101C58.1315 77.0936 57.9529 76.8347 57.83 76.5485C57.7072 76.2622 57.6426 75.9544 57.64 75.643C57.6374 75.3315 57.6968 75.0226 57.8148 74.7344C57.9278 74.4538 58.0962 74.199 58.3101 73.9851C58.5239 73.7712 58.7788 73.6028 59.0594 73.4899C59.3397 73.38 59.6398 73.3297 59.9406 73.3422Z" fill="#E1DEDE"/>
</svg>
